<svg xmlns="http://www.w3.org/2000/svg" xmlns:xlink="http://www.w3.org/1999/xlink" width="304.994" height="245" viewBox="0 0 304.994 245">
  <defs>
    <linearGradient id="linear-gradient" x1="0.879" y1="-0.126" x2="0.148" y2="0.802" gradientUnits="objectBoundingBox">
      <stop offset="0" stop-color="#fff"/>
      <stop offset="1" stop-color="#0b0b22" stop-opacity="0"/>
    </linearGradient>
  </defs>
  <path id="减去_2" data-name="减去 2" d="M2391.667,1258.168A152.745,152.745,0,0,1,2334.281,1247a151.732,151.732,0,0,1-26.525-13.958,153.615,153.615,0,0,1-23.923-19.541,151.738,151.738,0,0,1-40.333-71.651,152.207,152.207,0,0,1,26.9-128.683h242.533a151.927,151.927,0,0,1,30.258,75.243,152.749,152.749,0,0,1-12.1,79.129A151.841,151.841,0,0,1,2499.5,1213.5a153.622,153.622,0,0,1-23.923,19.541,151.666,151.666,0,0,1-54.784,22.333A153.607,153.607,0,0,1,2391.667,1258.168Z" transform="translate(-2239.171 -1013.168)" fill="url(#linear-gradient)"/>
</svg>
