<svg xmlns="http://www.w3.org/2000/svg" width="50" height="50" viewBox="0 0 50 50">
  <g id="组_1978" data-name="组 1978" transform="translate(-1853.167 -46.167)">
    <rect id="矩形_24" data-name="矩形 24" width="50" height="50" transform="translate(1853.167 46.167)" fill="#00081d"/>
    <path id="路径_1239" data-name="路径 1239" d="M341.675,210.72l-7.681-7.6,7.631-7.712a.869.869,0,0,0,0-1.229h0a.8.8,0,0,0-1.229.084l-8.14,8.14a1.358,1.358,0,0,0-.257.346,1.044,1.044,0,0,0,.193,1.035l8.254,8.254a.971.971,0,0,0,1.234-.084A.873.873,0,0,0,341.675,210.72Z" transform="translate(2080.889 -265.264) rotate(90)" fill="#fff" stroke="#fff" stroke-width="1.5"/>
  </g>
</svg>
