<svg xmlns="http://www.w3.org/2000/svg" width="43" height="43" viewBox="0 0 43 43">
  <g id="组_1975" data-name="组 1975" transform="translate(-1480.167 -631.167)">
    <g id="组_7" data-name="组 7" transform="translate(-3211.414 -3711.836)">
      <path id="路径_3" data-name="路径 3" d="M79.274,260.984c-.743-.138-.388-.549-.388-.549a1.777,1.777,0,0,0-.138-2.08c-1.085-1.085-3.715.138-3.715.138-.994.3-.732-.138-.578-.925,0-.9-.32-2.446-3-1.531-2.658.9-4.961,4.115-4.961,4.115a5.609,5.609,0,0,0-1.387,3.761c.388,3.646,4.264,4.64,7.27,4.869,3.166.252,7.429-1.085,8.72-3.841a2.626,2.626,0,0,0-1.819-3.956Zm-6.675,6.8c-3.144.138-5.681-1.44-5.681-3.532s2.543-3.761,5.681-3.909,5.681,1.131,5.681,3.236S75.742,267.648,72.6,267.784Zm0,0" transform="translate(4638.468 4103.457)" fill="#fff"/>
      <path id="路径_4" data-name="路径 4" d="M249.59,285.708a2.987,2.987,0,0,0-2.812,3.338,1.647,1.647,0,0,0,.858,1.405,3.683,3.683,0,0,0,4.709-.834,2.562,2.562,0,0,0-2.754-3.909Zm-.788,4.161a.859.859,0,0,1-1.063-.766,1.106,1.106,0,0,1,1.017-1.063c.674-.068,1.12.32,1.12.809a1.171,1.171,0,0,1-1.074,1.019Zm1.863-1.589c-.217.138-.446.126-.549-.057a.462.462,0,0,1,.126-.606.372.372,0,0,1,.578.057.533.533,0,0,1-.155.608Zm0,0,7.773-4.584a.5.5,0,0,0,.491-.446c0-.023.023-.035.023-.057a2.327,2.327,0,0,0-2.845-2.857.514.514,0,1,0,0,1.029c2.312-.514,1.795,1.806,1.795,1.806a.534.534,0,0,0,.535.525Zm0,0" transform="translate(4460.849 4079.466)" fill="#fff"/>
      <path id="路径_5" data-name="路径 5" d="M611.468,156.758a6.254,6.254,0,0,0-2.572.023c-.023,0-.057.012-.068.012a.041.041,0,0,0-.023.012.762.762,0,0,0-.549.732.749.749,0,0,0,.743.743,4.233,4.233,0,0,0,.693-.159,4.013,4.013,0,0,1,3.726,1.849,3.475,3.475,0,0,1,.231,2.5,2.024,2.024,0,0,0-.159.732.718.718,0,0,0,.766.693c.347,0,.64.012.708-.617h.023C616.211,158.9,613.479,157.216,611.468,156.758Zm0,0" transform="translate(4107.429 4200.367)" fill="#fff"/>
    </g>
    <g id="椭圆_8" data-name="椭圆 8" transform="translate(1480.167 631.167)" fill="none" stroke="#fff" stroke-width="1" opacity="0.7">
      <circle cx="21.5" cy="21.5" r="21.5" stroke="none"/>
      <circle cx="21.5" cy="21.5" r="21" fill="none"/>
    </g>
  </g>
</svg>
