<svg xmlns="http://www.w3.org/2000/svg" width="43" height="43" viewBox="0 0 43 43">
  <g id="组_1977" data-name="组 1977" transform="translate(-1606.167 -631.167)">
    <g id="组_8" data-name="组 8" transform="translate(-3183.833 -3712.832)">
      <path id="路径_1" data-name="路径 1" d="M21.191,13.248c0-2.935-2.935-5.327-6.239-5.327-3.5,0-6.247,2.391-6.247,5.327s2.748,5.326,6.247,5.326a9.5,9.5,0,0,0,2.2-.364l2.016,1.1-.551-1.837a5.58,5.58,0,0,0,2.574-4.23Zm-8.265-.919a.732.732,0,0,1,0-1.463.839.839,0,0,1,.92.731.838.838,0,0,1-.92.731Zm4.043,0a.732.732,0,0,1,0-1.463.838.838,0,0,1,.919.731.844.844,0,0,1-.919.731ZM14.346,7.272a6.885,6.885,0,0,1,.723.042C14.422,4.289,11.191,2.048,7.5,2.048,3.38,2.047,0,4.854,0,8.426a6.157,6.157,0,0,0,3,5.067l-.747,2.259,2.625-1.32a13.114,13.114,0,0,0,2.626.374,6.858,6.858,0,0,0,.7-.032A5.478,5.478,0,0,1,7.967,13.2a6.144,6.144,0,0,1,6.38-5.931ZM10.309,5.238a.884.884,0,0,1,.938.938.885.885,0,0,1-.939.939,1.052,1.052,0,0,1-1.129-.939,1.062,1.062,0,0,1,1.129-.939ZM5.059,7.113A1.052,1.052,0,0,1,3.93,6.174a1.051,1.051,0,0,1,1.129-.938A.885.885,0,0,1,6,6.174a.889.889,0,0,1-.941.939Z" transform="translate(4800.554 4354.952)" fill="#fff"/>
    </g>
    <g id="椭圆_8" data-name="椭圆 8" transform="translate(1606.167 631.167)" fill="none" stroke="#fff" stroke-width="1" opacity="0.7">
      <circle cx="21.5" cy="21.5" r="21.5" stroke="none"/>
      <circle cx="21.5" cy="21.5" r="21" fill="none"/>
    </g>
  </g>
</svg>
