<svg xmlns="http://www.w3.org/2000/svg" width="43" height="43" viewBox="0 0 43 43">
  <g id="组_1976" data-name="组 1976" transform="translate(-1543.167 -631.167)">
    <circle id="椭圆_8" data-name="椭圆 8" cx="21.5" cy="21.5" r="21.5" transform="translate(1543.167 631.167)" fill="#fff"/>
    <path id="路径_2" data-name="路径 2" d="M136.3,76.03a10.544,10.544,0,0,0-1.547-3.279,2.5,2.5,0,0,0-.365-2.444s-.219-6.112-6.188-6.112-6.188,6.112-6.188,6.112a2.5,2.5,0,0,0-.365,2.444A10.544,10.544,0,0,0,120.1,76.03c-.511,2.484.456,2.93.6,2.968s.476-.349.584-.524.346-.738.4-.776.146.292.146.292a6.393,6.393,0,0,0,1.2,2.173,4.119,4.119,0,0,0-1.386.912s-1.04,1.591,1.733,1.9a8.5,8.5,0,0,0,4.6-.659h.438a8.5,8.5,0,0,0,4.6.659c2.773-.311,1.733-1.9,1.733-1.9a4.119,4.119,0,0,0-1.386-.912,6.393,6.393,0,0,0,1.2-2.173s.092-.33.146-.292.292.6.4.776.438.563.584.524S136.809,78.514,136.3,76.03Z" transform="translate(1436.633 578.973)" fill="#0b0b22"/>
  </g>
</svg>
